# Blender v2.78 (sub 0) OBJ File: ''
# www.blender.org
mtllib Observatory.mtl
o Sphere.001_Sphere.002
v 0.041386 4.908636 -2.219076
v 0.201287 4.235983 -3.022957
v 0.332516 3.416353 -3.682685
v 0.332516 -2.593575 -3.682685
v 0.201287 -3.413205 -3.022957
v 0.041386 -4.085858 -2.219076
v 0.605097 4.908636 -2.048076
v 0.918755 4.235983 -2.805315
v 1.176168 3.416353 -3.426765
v 1.367443 2.481244 -3.888544
v 1.485230 1.466592 -4.172907
v 1.525002 0.411389 -4.268924
v 1.485230 -0.643814 -4.172907
v 1.367444 -1.658466 -3.888545
v 1.176168 -2.593575 -3.426765
v 0.918755 -3.413205 -2.805315
v 0.605096 -4.085858 -2.048076
v 1.124616 4.908636 -1.770387
v 1.579978 4.235983 -2.451885
v 1.953683 3.416353 -3.011175
v 2.231372 2.481244 -3.426765
v 2.402371 1.466592 -3.682684
v 2.460111 0.411389 -3.769098
v 2.402371 -0.643814 -3.682684
v 2.231372 -1.658466 -3.426765
v 1.953683 -2.593575 -3.011175
v 1.579978 -3.413205 -2.451885
v 1.124615 -4.085858 -1.770387
v 1.579978 4.908636 -1.396681
v 2.159543 4.235983 -1.976247
v 2.635181 3.416353 -2.451884
v 2.635181 -2.593575 -2.451884
v 2.159543 -3.413205 -1.976247
v 1.579978 -4.085858 -1.396681
v 1.953684 4.908636 -0.941319
v 2.635181 4.235983 -1.396681
v 3.194471 3.416353 -1.770387
v 3.194471 -2.593575 -1.770387
v 2.635181 -3.413205 -1.396681
v 1.953683 -4.085858 -0.941319
v 2.231372 4.908636 -0.421800
v 2.988611 4.235983 -0.735459
v 3.610062 3.416353 -0.992872
v 3.610062 -2.593575 -0.992872
v 2.988611 -3.413205 -0.735459
v 2.231372 -4.085858 -0.421800
v 2.402372 4.908636 0.141911
v 3.206253 4.235983 -0.017991
v 3.865981 3.416353 -0.149219
v 3.865981 -2.593575 -0.149219
v 3.206253 -3.413205 -0.017991
v 2.402372 -4.085858 0.141911
v 2.460112 4.908636 0.728150
v 3.279741 4.235983 0.728150
v 3.952394 3.416353 0.728150
v 4.452220 2.481244 0.728150
v 4.760010 1.466592 0.728151
v 4.863940 0.411389 0.728151
v 4.760010 -0.643814 0.728151
v 4.452220 -1.658466 0.728150
v 3.952394 -2.593575 0.728150
v 3.279741 -3.413205 0.728150
v 2.460111 -4.085858 0.728150
v 2.402372 4.908636 1.314390
v 3.206252 4.235983 1.474292
v 3.865980 3.416353 1.605520
v 4.356202 2.481244 1.703031
v 4.658079 1.466592 1.763078
v 4.760012 0.411389 1.783354
v 4.658079 -0.643814 1.763078
v 4.356202 -1.658466 1.703031
v 3.865980 -2.593575 1.605520
v 3.206252 -3.413205 1.474292
v 2.402371 -4.085858 1.314390
v 2.231372 4.908636 1.878101
v 2.988611 4.235983 2.191759
v 3.610061 3.416353 2.449173
v 4.071840 2.481244 2.640447
v 4.356201 1.466592 2.758234
v 4.452220 0.411389 2.798007
v 4.356201 -0.643814 2.758234
v 4.071840 -1.658466 2.640447
v 3.610061 -2.593575 2.449173
v 2.988611 -3.413205 2.191759
v 2.231371 -4.085858 1.878101
v 1.953683 4.908636 2.397619
v 2.635180 4.235983 2.852981
v 3.194470 3.416353 3.226687
v 3.194470 -2.593575 3.226687
v 2.635180 -3.413205 2.852981
v 1.953683 -4.085858 2.397619
v 1.579977 4.908636 2.852982
v 2.159543 4.235983 3.432547
v 2.635180 3.416353 3.908185
v 2.635180 -2.593575 3.908185
v 2.159543 -3.413205 3.432547
v 1.579977 -4.085858 2.852981
v 1.124615 4.908636 3.226687
v 1.579977 4.235983 3.908185
v 1.953682 3.416353 4.467474
v 1.953682 -2.593575 4.467474
v 1.579977 -3.413205 3.908185
v 1.124614 -4.085858 3.226687
v 0.605096 4.908636 3.504376
v 0.918755 4.235983 4.261615
v 1.176167 3.416353 4.883064
v 1.176167 -2.593575 4.883064
v 0.918755 -3.413205 4.261615
v 0.605096 -4.085858 3.504375
v 0.041386 4.908636 3.675376
v 0.201287 4.235983 4.479256
v 0.332515 3.416353 5.138983
v 0.430027 2.481244 5.629206
v 0.490073 1.466592 5.931082
v 0.510349 0.411389 6.033015
v 0.490073 -0.643814 5.931082
v 0.430027 -1.658466 5.629206
v 0.332515 -2.593575 5.138983
v 0.201287 -3.413205 4.479256
v 0.041385 -4.085858 3.675375
v -0.544854 4.908636 3.733115
v -0.544854 4.235983 4.552744
v -0.544855 3.416353 5.225396
v -0.544854 2.481244 5.725224
v -0.544855 1.466592 6.033013
v -0.544855 0.411389 6.136943
v -0.544855 -0.643814 6.033013
v -0.544854 -1.658466 5.725224
v -0.544855 -2.593575 5.225396
v -0.544854 -3.413205 4.552744
v -0.544854 -4.085858 3.733114
v -1.131094 4.908636 3.675376
v -1.290996 4.235983 4.479256
v -1.422224 3.416353 5.138982
v -1.422224 -2.593575 5.138982
v -1.290996 -3.413205 4.479256
v -1.131094 -4.085858 3.675375
v -1.694804 4.908636 3.504376
v -2.008463 4.235983 4.261614
v -2.265876 3.416353 4.883063
v -2.265876 -2.593575 4.883063
v -2.008463 -3.413205 4.261614
v -1.694804 -4.085858 3.504375
v -2.214323 4.908636 3.226687
v -2.669685 4.235983 3.908184
v -3.043390 3.416353 4.467473
v -3.043390 -2.593575 4.467473
v -2.669685 -3.413205 3.908184
v -2.214323 -4.085858 3.226686
v -2.669685 4.908636 2.852982
v -3.249251 4.235983 3.432546
v -3.724887 3.416353 3.908182
v -3.724887 -2.593575 3.908182
v -3.249251 -3.413205 3.432546
v -2.669684 -4.085858 2.852981
v -3.043391 4.908636 2.397619
v -3.724888 4.235983 2.852981
v -4.284177 3.416353 3.226685
v -4.699768 2.481244 3.504375
v -4.955687 1.466592 3.675373
v -5.042101 0.411389 3.733114
v -4.955687 -0.643814 3.675373
v -4.699768 -1.658466 3.504375
v -4.284177 -2.593575 3.226685
v -3.724888 -3.413205 2.852981
v -3.043390 -4.085858 2.397619
v -3.321079 4.908636 1.878100
v -4.078319 4.235983 2.191759
v -4.699767 3.416353 2.449171
v -5.161548 2.481244 2.640447
v -5.445909 1.466592 2.758232
v -5.541927 0.411389 2.798005
v -5.445909 -0.643814 2.758232
v -5.161548 -1.658466 2.640447
v -4.699767 -2.593575 2.449171
v -4.078319 -3.413205 2.191759
v -3.321079 -4.085858 1.878100
v -3.492079 4.908636 1.314390
v -4.295959 4.235983 1.474291
v -4.955686 3.416353 1.605518
v -5.445910 2.481244 1.703031
v -5.747785 1.466592 1.763077
v -5.849718 0.411389 1.783352
v -5.747785 -0.643814 1.763077
v -5.445910 -1.658466 1.703031
v -4.955686 -2.593575 1.605518
v -4.295959 -3.413205 1.474291
v -3.492078 -4.085858 1.314389
v -3.549818 4.908636 0.728150
v -4.369448 4.235983 0.728150
v -5.042099 3.416353 0.728149
v -5.042099 -2.593575 0.728149
v -4.369448 -3.413205 0.728150
v -3.549818 -4.085858 0.728150
v -3.492079 4.908636 0.141911
v -4.295959 4.235983 -0.017992
v -4.955685 3.416353 -0.149220
v -4.955685 -2.593575 -0.149220
v -4.295959 -3.413205 -0.017992
v -3.492078 -4.085858 0.141911
v -3.321079 4.908636 -0.421800
v -4.078318 4.235983 -0.735459
v -4.699766 3.416353 -0.992872
v -4.699766 -2.593575 -0.992872
v -4.078318 -3.413205 -0.735459
v -3.321078 -4.085858 -0.421800
v -3.043390 4.908636 -0.941318
v -3.724887 4.235983 -1.396681
v -4.284176 3.416353 -1.770386
v -4.284176 -2.593575 -1.770386
v -3.724887 -3.413205 -1.396681
v -3.043389 -4.085858 -0.941318
v -2.669684 4.908636 -1.396680
v -3.249250 4.235983 -1.976246
v -3.724885 3.416353 -2.451883
v -4.078318 2.481244 -2.805314
v -4.295957 1.466592 -3.022954
v -4.369446 0.411389 -3.096443
v -4.295957 -0.643814 -3.022954
v -4.078318 -1.658466 -2.805314
v -3.724885 -2.593575 -2.451883
v -3.249250 -3.413205 -1.976246
v -2.669683 -4.085858 -1.396680
v -2.214322 4.908636 -1.770386
v -2.669684 4.235983 -2.451883
v -3.043388 3.416353 -3.011173
v -3.321079 2.481244 -3.426763
v -3.492076 1.466592 -3.682681
v -3.549816 0.411389 -3.769096
v -3.492076 -0.643814 -3.682681
v -3.321079 -1.658466 -3.426763
v -3.043388 -2.593575 -3.011173
v -2.669684 -3.413205 -2.451883
v -2.214322 -4.085858 -1.770385
v -1.694803 4.908636 -2.048074
v -2.008462 4.235983 -2.805314
v -2.265874 3.416353 -3.426762
v -2.265874 -2.593575 -3.426762
v -2.008462 -3.413205 -2.805314
v -1.694803 -4.085858 -2.048074
v -1.131093 4.908636 -2.219074
v -1.290995 4.235983 -3.022955
v -1.422222 3.416353 -3.682681
v -1.422222 -2.593575 -3.682681
v -1.290995 -3.413205 -3.022955
v -1.131093 -4.085858 -2.219073
v -0.544854 4.908636 -2.276813
v -0.544853 4.235983 -3.096443
v -0.544853 3.416353 -3.769094
v -0.544853 -2.593575 -3.769094
v -0.544853 -3.413205 -3.096443
v -0.544854 -4.085858 -2.276812
vn -0.0624 -0.7715 0.6332
vn -0.0759 0.6326 0.7708
vn -0.0759 -0.6326 0.7708
vn -0.0624 0.7715 0.6332
vn -0.1847 -0.7715 0.6088
vn -0.2248 0.6326 0.7412
vn -0.2248 -0.6326 0.7412
vn -0.1847 0.7715 0.6088
vn -0.3651 -0.6326 0.6831
vn -0.2999 0.7715 0.5611
vn -0.4162 -0.4696 0.7786
vn -0.4513 -0.2890 0.8443
vn -0.4691 -0.0975 0.8777
vn -0.4691 0.0975 0.8777
vn -0.4513 0.2890 0.8443
vn -0.4162 0.4696 0.7786
vn -0.2999 -0.7715 0.5611
vn -0.3651 0.6326 0.6831
vn -0.4036 -0.7715 0.4918
vn -0.4913 0.6326 0.5987
vn -0.4913 -0.6326 0.5987
vn -0.4036 0.7715 0.4918
vn -0.4918 0.7715 0.4036
vn -0.4918 -0.7715 0.4036
vn -0.5987 0.6326 0.4913
vn -0.5987 -0.6326 0.4913
vn -0.5611 -0.7715 0.2999
vn -0.6831 0.6326 0.3651
vn -0.6831 -0.6326 0.3651
vn -0.5611 0.7715 0.2999
vn -0.6088 -0.7715 0.1847
vn -0.7412 0.6326 0.2248
vn -0.7412 -0.6326 0.2248
vn -0.6088 0.7715 0.1847
vn -0.6332 -0.7715 0.0624
vn -0.7708 0.6326 0.0759
vn -0.7708 -0.6326 0.0759
vn -0.6332 0.7715 0.0624
vn -0.9527 -0.2890 -0.0938
vn -0.9904 -0.0976 -0.0975
vn -0.9904 0.0976 -0.0975
vn -0.9527 0.2890 -0.0938
vn -0.8786 0.4696 -0.0865
vn -0.6332 -0.7715 -0.0624
vn -0.7708 0.6326 -0.0759
vn -0.7708 -0.6326 -0.0759
vn -0.6332 0.7715 -0.0624
vn -0.8786 -0.4696 -0.0865
vn -0.8448 0.4696 -0.2563
vn -0.6088 -0.7715 -0.1847
vn -0.7412 0.6326 -0.2248
vn -0.7412 -0.6326 -0.2248
vn -0.6088 0.7715 -0.1847
vn -0.8448 -0.4696 -0.2563
vn -0.9161 -0.2890 -0.2779
vn -0.9524 -0.0976 -0.2889
vn -0.9524 0.0976 -0.2889
vn -0.9161 0.2890 -0.2779
vn -0.5611 -0.7715 -0.2999
vn -0.6831 0.6326 -0.3651
vn -0.6831 -0.6326 -0.3651
vn -0.5611 0.7715 -0.2999
vn -0.4918 -0.7715 -0.4036
vn -0.5987 0.6326 -0.4913
vn -0.5987 -0.6326 -0.4913
vn -0.4918 0.7715 -0.4036
vn -0.4036 -0.7715 -0.4918
vn -0.4913 0.6326 -0.5987
vn -0.4913 -0.6326 -0.5987
vn -0.4036 0.7715 -0.4918
vn -0.3651 0.6326 -0.6831
vn -0.3651 -0.6326 -0.6831
vn -0.2999 0.7715 -0.5611
vn -0.2999 -0.7715 -0.5611
vn -0.1847 -0.7715 -0.6088
vn -0.2248 0.6326 -0.7412
vn -0.2248 -0.6326 -0.7412
vn -0.1847 0.7715 -0.6088
vn -0.0759 -0.6326 -0.7708
vn -0.0624 0.7715 -0.6332
vn -0.0865 -0.4696 -0.8786
vn -0.0938 -0.2890 -0.9527
vn -0.0975 -0.0976 -0.9904
vn -0.0975 0.0976 -0.9904
vn -0.0938 0.2890 -0.9527
vn -0.0865 0.4696 -0.8786
vn -0.0624 -0.7715 -0.6332
vn -0.0759 0.6326 -0.7708
vn 0.0624 -0.7715 -0.6332
vn 0.0759 0.6326 -0.7708
vn 0.0759 -0.6326 -0.7708
vn 0.0624 0.7715 -0.6332
vn 0.1847 0.7715 -0.6088
vn 0.1847 -0.7715 -0.6088
vn 0.2248 0.6326 -0.7412
vn 0.2248 -0.6326 -0.7412
vn 0.2999 -0.7715 -0.5611
vn 0.3651 0.6326 -0.6831
vn 0.3651 -0.6326 -0.6831
vn 0.2999 0.7715 -0.5611
vn 0.4036 -0.7715 -0.4918
vn 0.4913 0.6326 -0.5987
vn 0.4913 -0.6326 -0.5987
vn 0.4036 0.7715 -0.4918
vn 0.4918 -0.7715 -0.4036
vn 0.5987 0.6326 -0.4913
vn 0.5987 -0.6326 -0.4913
vn 0.4918 0.7715 -0.4036
vn 0.8443 -0.2890 -0.4513
vn 0.8777 -0.0976 -0.4691
vn 0.8777 0.0976 -0.4691
vn 0.8443 0.2890 -0.4513
vn 0.7786 0.4696 -0.4162
vn 0.5611 -0.7715 -0.2999
vn 0.6831 0.6326 -0.3651
vn 0.6831 -0.6326 -0.3651
vn 0.5611 0.7715 -0.2999
vn 0.7786 -0.4696 -0.4162
vn 0.8448 0.4696 -0.2563
vn 0.6088 -0.7715 -0.1847
vn 0.7412 0.6326 -0.2248
vn 0.7412 -0.6326 -0.2248
vn 0.6088 0.7715 -0.1847
vn 0.8448 -0.4696 -0.2563
vn 0.9161 -0.2890 -0.2779
vn 0.9524 -0.0976 -0.2889
vn 0.9524 0.0976 -0.2889
vn 0.9161 0.2890 -0.2779
vn 0.6332 -0.7715 -0.0624
vn 0.7708 0.6326 -0.0759
vn 0.7708 -0.6326 -0.0759
vn 0.6332 0.7715 -0.0624
vn 0.6332 -0.7715 0.0624
vn 0.7708 0.6326 0.0759
vn 0.7708 -0.6326 0.0759
vn 0.6332 0.7715 0.0624
vn 0.6088 -0.7715 0.1847
vn 0.7412 0.6326 0.2248
vn 0.7412 -0.6326 0.2248
vn 0.6088 0.7715 0.1847
vn 0.6831 0.6326 0.3651
vn 0.6831 -0.6326 0.3651
vn 0.5611 0.7715 0.2999
vn 0.5611 -0.7715 0.2999
vn 0.4918 -0.7715 0.4036
vn 0.5987 0.6326 0.4913
vn 0.5987 -0.6326 0.4913
vn 0.4918 0.7715 0.4036
vn 0.4036 0.7715 0.4918
vn 0.5601 -0.4696 0.6825
vn 0.6073 -0.2890 0.7400
vn 0.6314 -0.0976 0.7693
vn 0.6314 0.0976 0.7693
vn 0.6073 0.2890 0.7400
vn 0.5601 0.4696 0.6825
vn 0.4036 -0.7715 0.4918
vn 0.4913 0.6326 0.5987
vn 0.4913 -0.6326 0.5987
vn 0.2999 -0.7715 0.5611
vn 0.3651 0.6326 0.6831
vn 0.3651 -0.6326 0.6831
vn 0.2999 0.7715 0.5611
vn 0.1847 -0.7715 0.6088
vn 0.2248 0.6326 0.7412
vn 0.2248 -0.6326 0.7412
vn 0.1847 0.7715 0.6088
vn 0.0624 -0.7715 0.6332
vn 0.0759 0.6326 0.7708
vn 0.0759 -0.6326 0.7708
vn 0.0624 0.7715 0.6332
usemtl None
s off
f 248//1 2//1 1//1 247//1
f 251//2 5//2 4//2 250//2
f 249//3 3//3 2//3 248//3
f 252//4 6//4 5//4 251//4
f 2//5 8//5 7//5 1//5
f 5//6 16//6 15//6 4//6
f 3//7 9//7 8//7 2//7
f 6//8 17//8 16//8 5//8
f 9//9 20//9 19//9 8//9
f 17//10 28//10 27//10 16//10
f 10//11 21//11 20//11 9//11
f 11//12 22//12 21//12 10//12
f 12//13 23//13 22//13 11//13
f 13//14 24//14 23//14 12//14
f 14//15 25//15 24//15 13//15
f 15//16 26//16 25//16 14//16
f 8//17 19//17 18//17 7//17
f 16//18 27//18 26//18 15//18
f 19//19 30//19 29//19 18//19
f 27//20 33//20 32//20 26//20
f 20//21 31//21 30//21 19//21
f 28//22 34//22 33//22 27//22
f 34//23 40//23 39//23 33//23
f 30//24 36//24 35//24 29//24
f 33//25 39//25 38//25 32//25
f 31//26 37//26 36//26 30//26
f 36//27 42//27 41//27 35//27
f 39//28 45//28 44//28 38//28
f 37//29 43//29 42//29 36//29
f 40//30 46//30 45//30 39//30
f 42//31 48//31 47//31 41//31
f 45//32 51//32 50//32 44//32
f 43//33 49//33 48//33 42//33
f 46//34 52//34 51//34 45//34
f 48//35 54//35 53//35 47//35
f 51//36 62//36 61//36 50//36
f 49//37 55//37 54//37 48//37
f 52//38 63//38 62//38 51//38
f 57//39 68//39 67//39 56//39
f 58//40 69//40 68//40 57//40
f 59//41 70//41 69//41 58//41
f 60//42 71//42 70//42 59//42
f 61//43 72//43 71//43 60//43
f 54//44 65//44 64//44 53//44
f 62//45 73//45 72//45 61//45
f 55//46 66//46 65//46 54//46
f 63//47 74//47 73//47 62//47
f 56//48 67//48 66//48 55//48
f 72//49 83//49 82//49 71//49
f 65//50 76//50 75//50 64//50
f 73//51 84//51 83//51 72//51
f 66//52 77//52 76//52 65//52
f 74//53 85//53 84//53 73//53
f 67//54 78//54 77//54 66//54
f 68//55 79//55 78//55 67//55
f 69//56 80//56 79//56 68//56
f 70//57 81//57 80//57 69//57
f 71//58 82//58 81//58 70//58
f 76//59 87//59 86//59 75//59
f 84//60 90//60 89//60 83//60
f 77//61 88//61 87//61 76//61
f 85//62 91//62 90//62 84//62
f 87//63 93//63 92//63 86//63
f 90//64 96//64 95//64 89//64
f 88//65 94//65 93//65 87//65
f 91//66 97//66 96//66 90//66
f 93//67 99//67 98//67 92//67
f 96//68 102//68 101//68 95//68
f 94//69 100//69 99//69 93//69
f 97//70 103//70 102//70 96//70
f 102//71 108//71 107//71 101//71
f 100//72 106//72 105//72 99//72
f 103//73 109//73 108//73 102//73
f 99//74 105//74 104//74 98//74
f 105//75 111//75 110//75 104//75
f 108//76 119//76 118//76 107//76
f 106//77 112//77 111//77 105//77
f 109//78 120//78 119//78 108//78
f 112//79 123//79 122//79 111//79
f 120//80 131//80 130//80 119//80
f 113//81 124//81 123//81 112//81
f 114//82 125//82 124//82 113//82
f 115//83 126//83 125//83 114//83
f 116//84 127//84 126//84 115//84
f 117//85 128//85 127//85 116//85
f 118//86 129//86 128//86 117//86
f 111//87 122//87 121//87 110//87
f 119//88 130//88 129//88 118//88
f 122//89 133//89 132//89 121//89
f 130//90 136//90 135//90 129//90
f 123//91 134//91 133//91 122//91
f 131//92 137//92 136//92 130//92
f 137//93 143//93 142//93 136//93
f 133//94 139//94 138//94 132//94
f 136//95 142//95 141//95 135//95
f 134//96 140//96 139//96 133//96
f 139//97 145//97 144//97 138//97
f 142//98 148//98 147//98 141//98
f 140//99 146//99 145//99 139//99
f 143//100 149//100 148//100 142//100
f 145//101 151//101 150//101 144//101
f 148//102 154//102 153//102 147//102
f 146//103 152//103 151//103 145//103
f 149//104 155//104 154//104 148//104
f 151//105 157//105 156//105 150//105
f 154//106 165//106 164//106 153//106
f 152//107 158//107 157//107 151//107
f 155//108 166//108 165//108 154//108
f 160//109 171//109 170//109 159//109
f 161//110 172//110 171//110 160//110
f 162//111 173//111 172//111 161//111
f 163//112 174//112 173//112 162//112
f 164//113 175//113 174//113 163//113
f 157//114 168//114 167//114 156//114
f 165//115 176//115 175//115 164//115
f 158//116 169//116 168//116 157//116
f 166//117 177//117 176//117 165//117
f 159//118 170//118 169//118 158//118
f 175//119 186//119 185//119 174//119
f 168//120 179//120 178//120 167//120
f 176//121 187//121 186//121 175//121
f 169//122 180//122 179//122 168//122
f 177//123 188//123 187//123 176//123
f 170//124 181//124 180//124 169//124
f 171//125 182//125 181//125 170//125
f 172//126 183//126 182//126 171//126
f 173//127 184//127 183//127 172//127
f 174//128 185//128 184//128 173//128
f 179//129 190//129 189//129 178//129
f 187//130 193//130 192//130 186//130
f 180//131 191//131 190//131 179//131
f 188//132 194//132 193//132 187//132
f 190//133 196//133 195//133 189//133
f 193//134 199//134 198//134 192//134
f 191//135 197//135 196//135 190//135
f 194//136 200//136 199//136 193//136
f 196//137 202//137 201//137 195//137
f 199//138 205//138 204//138 198//138
f 197//139 203//139 202//139 196//139
f 200//140 206//140 205//140 199//140
f 205//141 211//141 210//141 204//141
f 203//142 209//142 208//142 202//142
f 206//143 212//143 211//143 205//143
f 202//144 208//144 207//144 201//144
f 208//145 214//145 213//145 207//145
f 211//146 222//146 221//146 210//146
f 209//147 215//147 214//147 208//147
f 212//148 223//148 222//148 211//148
f 223//149 234//149 233//149 222//149
f 216//150 227//150 226//150 215//150
f 217//151 228//151 227//151 216//151
f 218//152 229//152 228//152 217//152
f 219//153 230//153 229//153 218//153
f 220//154 231//154 230//154 219//154
f 221//155 232//155 231//155 220//155
f 214//156 225//156 224//156 213//156
f 222//157 233//157 232//157 221//157
f 215//158 226//158 225//158 214//158
f 225//159 236//159 235//159 224//159
f 233//160 239//160 238//160 232//160
f 226//161 237//161 236//161 225//161
f 234//162 240//162 239//162 233//162
f 236//163 242//163 241//163 235//163
f 239//164 245//164 244//164 238//164
f 237//165 243//165 242//165 236//165
f 240//166 246//166 245//166 239//166
f 242//167 248//167 247//167 241//167
f 245//168 251//168 250//168 244//168
f 243//169 249//169 248//169 242//169
f 246//170 252//170 251//170 245//170
